<?xml version="1.0" encoding="utf-8"?>
<!-- Generator: Adobe Illustrator 27.7.0, SVG Export Plug-In . SVG Version: 6.00 Build 0)  -->
<svg version="1.0" id="Layer_1" xmlns="http://www.w3.org/2000/svg" xmlns:xlink="http://www.w3.org/1999/xlink" x="0px" y="0px"
	 viewBox="0 0 421.6 199.8" style="enable-background:new 0 0 421.6 199.8;" xml:space="preserve">
<style type="text/css">
	.st0{fill:#010101;}
	.st1{fill:#FFFFFF;}
	.st2{fill:#2B1038;}
</style>
<circle class="st0" cx="99.9" cy="99.9" r="99.9"/>
<g>
	<path class="st1" d="M26.4,111.4h-4.7V86.7h4.7C26.4,86.7,26.4,111.4,26.4,111.4z"/>
	<path class="st1" d="M44,111.4h-4.7V86.7l0,0l16.5,14.6V86.7h4.7v24.7l0,0L44,97.6C44,97.6,44,111.4,44,111.4z"/>
	<path class="st1" d="M81.1,100.9l2,1l7.4-15.2h5.1l-12.5,24.7L70.6,86.7h5.1l7.4,15.2L81.1,100.9z"/>
	<path class="st1" d="M105.5,111.4V86.7h4.7v24.7H105.5z"/>
	<path class="st1" d="M168.3,86.7L168.3,86.7l12,24.7h-4.9l-1.8-3.9h-10.7l-1.8,3.9h-4.9L168.3,86.7L168.3,86.7z M168.3,95.7
		L168.3,95.7l-3.6,7.9h7.2L168.3,95.7z"/>
	<path class="st1" d="M145,117.8h-5.3l-3.1-5.4c-0.5,0.1-1.1,0.1-1.6,0.1c-7.1,0-12.9-5.8-12.9-12.9s5.8-12.9,12.9-12.9
		c7.1,0,12.9,5.8,12.9,12.9c0,5-2.9,9.4-7.1,11.5L145,117.8L145,117.8z M135,91.4c-4.5,0-8.2,3.7-8.2,8.2s3.7,8.2,8.2,8.2
		s8.2-3.7,8.2-8.2S139.6,91.4,135,91.4z"/>
</g>
<path class="st1" d="M178.7,86.3c0.4,0,0.8,0.1,1.2,0.3s0.7,0.5,0.9,0.9s0.3,0.8,0.3,1.2s-0.1,0.8-0.3,1.2s-0.5,0.7-0.9,0.9
	c-0.4,0.2-0.8,0.3-1.2,0.3s-0.8-0.1-1.2-0.3s-0.7-0.5-0.9-0.9c-0.2-0.4-0.3-0.8-0.3-1.2s0.1-0.8,0.3-1.2s0.5-0.7,0.9-0.9
	C177.8,86.4,178.2,86.3,178.7,86.3L178.7,86.3z M178.7,86.7c-0.4,0-0.7,0.1-1,0.3s-0.6,0.4-0.8,0.8s-0.3,0.7-0.3,1s0.1,0.7,0.3,1
	c0.2,0.3,0.4,0.6,0.8,0.8c0.3,0.2,0.7,0.3,1,0.3s0.7-0.1,1-0.3c0.3-0.2,0.6-0.4,0.8-0.8c0.2-0.3,0.3-0.7,0.3-1s-0.1-0.7-0.3-1
	c-0.2-0.3-0.4-0.6-0.8-0.8S179,86.7,178.7,86.7L178.7,86.7z M177.6,90.1v-2.7h0.9c0.3,0,0.5,0,0.7,0.1s0.2,0.1,0.3,0.3
	c0.1,0.1,0.1,0.2,0.1,0.4c0,0.2-0.1,0.4-0.2,0.5s-0.3,0.2-0.6,0.2c0.1,0,0.2,0.1,0.2,0.1c0.1,0.1,0.2,0.3,0.4,0.5l0.3,0.5h-0.5
	l-0.2-0.4c-0.2-0.3-0.3-0.5-0.4-0.6c-0.1-0.1-0.2-0.1-0.3-0.1H178v1.1L177.6,90.1L177.6,90.1z M178,88.6h0.5c0.2,0,0.4,0,0.5-0.1
	s0.1-0.2,0.1-0.3c0-0.1,0-0.2-0.1-0.2s-0.1-0.1-0.2-0.1c-0.1,0-0.2,0-0.4,0H178L178,88.6L178,88.6z"/>
<g id="_1ST_---_RIGHT">
	<path class="st2" d="M222.3,106.6l6-11.5h2.2l6,11.5h-2.1l-1.7-3.2h-6.7l-1.7,3.2H222.3L222.3,106.6z M226.8,101.7h5l-2.5-4.9h0
		L226.8,101.7L226.8,101.7z"/>
	<path class="st2" d="M242.1,95.1h1.9v4.8h8.6v-4.8h1.9v11.5h-1.9v-5h-8.6v5h-1.9V95.1z"/>
	<path class="st2" d="M256,106.6l6-11.5h2.2l6,11.5H268l-1.7-3.2h-6.7l-1.7,3.2H256L256,106.6z M260.4,101.7h5l-2.5-4.9h0
		L260.4,101.7L260.4,101.7z"/>
	<path class="st2" d="M268.6,95.1h2.1l5.2,9.6l0,0l5.2-9.6h2l-6.1,11.5h-2.1L268.6,95.1z"/>
	<path class="st2" d="M281.5,106.6l6-11.5h2.2l6,11.5h-2.1l-1.7-3.2h-6.7l-1.7,3.2H281.5L281.5,106.6z M285.9,101.7h5l-2.5-4.9h0
		L285.9,101.7L285.9,101.7z"/>
	<path class="st2" d="M295.8,103h2.1c0.4,1.6,2.4,2.3,4.7,2.3s4.3-0.4,4.3-1.8v0c0-1.3-1.4-1.6-4-1.9l-2-0.2
		c-3.2-0.3-4.8-1.4-4.8-3.3v0c0-2.1,2.7-3.2,6-3.2s5.8,1.2,6.2,3.4h-2.1c-0.4-1.4-2.2-1.9-4.3-1.9s-3.9,0.4-3.9,1.6v0
		c0,1,0.9,1.5,3.4,1.7l2,0.2c3.4,0.4,5.3,1,5.3,3.3v0c0,2.4-2.6,3.5-6.3,3.5S296.3,105.5,295.8,103L295.8,103z"/>
	<path class="st2" d="M315,100.9L315,100.9c0-3.6,3-6,7.5-6c3.5,0,6.2,1.5,6.9,3.9h-2.1c-0.7-1.6-2.7-2.3-4.9-2.3
		c-3.1,0-5.5,1.5-5.5,4.4v0c0,2.9,2.4,4.4,5.5,4.4c2.2,0,4.2-0.8,4.9-2.3h2.1c-0.8,2.4-3.4,3.9-6.9,3.9
		C318,106.9,315,104.5,315,100.9L315,100.9z"/>
	<path class="st2" d="M330.8,100.9L330.8,100.9c0-3.7,3.1-6,7.5-6s7.5,2.2,7.5,5.9v0c0,3.7-3.1,6-7.5,6S330.8,104.6,330.8,100.9z
		 M343.8,100.9L343.8,100.9c0-2.8-2.4-4.4-5.5-4.4s-5.5,1.6-5.5,4.4v0c0,2.8,2.4,4.4,5.5,4.4S343.8,103.7,343.8,100.9z"/>
	<path class="st2" d="M348.2,95.1h2.9l4.9,9.6h0l4.9-9.6h2.9v11.5H362v-9.7l0,0l-5,9.7h-1.9l-5-9.7h0v3.7v6h-1.9L348.2,95.1
		L348.2,95.1z"/>
	<path class="st2" d="M366.9,106.6V95.1h6.8c3,0,4.9,1,4.9,3.5v0c0,2.5-1.8,3.5-4.9,3.5h-5v4.4C368.8,106.6,366.9,106.6,366.9,106.6
		z M368.8,100.6h4.9c2,0,3-0.4,3-1.9v0c0-1.5-0.9-1.9-3-1.9h-4.9C368.8,96.7,368.8,100.6,368.8,100.6z"/>
	<path class="st2" d="M377.7,106.6l6-11.5h2.2l6,11.5h-2.1l-1.7-3.2h-6.7l-1.7,3.2H377.7L377.7,106.6z M382.2,101.7h5l-2.5-4.9h0
		L382.2,101.7L382.2,101.7z"/>
	<path class="st2" d="M393.4,95.1h2.1l8.5,9.1h0V102v-6.9h1.9v11.5h-2.2l-8.4-9.1h0v2.2v6.9h-1.9L393.4,95.1L393.4,95.1z"/>
	<path class="st2" d="M413.6,102.4l-6.1-7.2h2.3l4,4.7l0.8,0.9h0l0.8-0.9l4-4.7h2.3l-6.1,7.2v4.2h-1.9L413.6,102.4L413.6,102.4z"/>
</g>
</svg>
